<svg width="239" height="43" xmlns="http://www.w3.org/2000/svg" xmlns:xlink="http://www.w3.org/1999/xlink"><defs><path id="a" d="M.009.115h15.417v19.654H.009z"/></defs><g fill="none" fill-rule="evenodd"><path d="M107.688 23.663c.242-1.926 1.892-5.017 5.917-5.017 3.743 0 5.635 2.93 5.756 5.017h-11.673zm5.917-8.148c-5.595 0-9.298 4.335-9.298 9.753 0 5.499 4.065 9.753 9.7 9.753 4.911 0 7.728-3.652 7.728-3.652l-2.133-2.208s-1.932 2.73-5.595 2.73c-3.502 0-6.198-2.61-6.4-5.419h15.014c.04-.44.04-.722.04-1.083 0-5.98-3.864-9.874-9.056-9.874zM148.386 28.76s-1.807 3.13-5.422 3.13c-3.775 0-6.185-2.97-6.185-6.622 0-3.652 2.41-6.622 6.185-6.622 3.615 0 5.422 3.13 5.422 3.13v6.984zm.281-10.073s-1.807-3.172-6.345-3.172c-4.94 0-8.917 4.295-8.917 9.753s3.977 9.753 8.917 9.753c4.538 0 6.345-3.171 6.345-3.171v2.69h3.093V15.996h-3.093v2.69zM160.317 18.853v-2.855h-3.185v18.58h3.43V21.788s1.348-3.137 4.33-3.137c1.43 0 2.165.402 2.165.402l1.266-3.056s-1.184-.483-2.736-.483c-3.594 0-5.27 3.338-5.27 3.338M172.152 23.663c.242-1.926 1.892-5.017 5.917-5.017 3.743 0 5.635 2.93 5.756 5.017h-11.673zm5.917-8.148c-5.595 0-9.298 4.335-9.298 9.753 0 5.499 4.066 9.753 9.7 9.753 4.911 0 7.728-3.652 7.728-3.652l-2.133-2.208s-1.932 2.73-5.595 2.73c-3.501 0-6.198-2.61-6.4-5.419h15.014c.04-.44.04-.722.04-1.083 0-5.98-3.864-9.874-9.056-9.874zM215.519 24.205c0 4.56-2.02 8.03-6.905 8.03-4.886 0-6.905-3.47-6.905-8.03V7.536h-3.392v17.032c0 6.416 3.836 10.896 10.297 10.896 6.46 0 10.296-4.48 10.296-10.896V7.536h-3.391v16.669z" fill="#79158F"/><g transform="translate(223.387 15.515)"><mask id="b" fill="#fff"><use xlink:href="#a"/></mask><path d="M8.83 8.405C5.755 7.758 4.3 6.99 4.3 5.574c0-1.213 1.173-2.386 3.56-2.386 2.833 0 4.694 2.063 4.694 2.063l2.225-2.305S12.27.115 7.86.115C3.692.115.98 2.784.98 5.494c0 3.518 2.833 5.095 6.839 5.904 2.873.566 4.249 1.375 4.249 2.992 0 1.497-2.145 2.306-4.047 2.306-3.682 0-5.665-3.034-5.665-3.034L.01 15.846S2.76 19.77 8.021 19.77c3.601 0 7.405-1.86 7.405-5.46 0-3.8-3.035-5.135-6.596-5.904" fill="#79158F" mask="url(#b)"/></g><path d="M21.361 35.649a.79.79 0 0 0 .013-.837c-.88-1.473-1.798-3.12-2.83-4.989-3.18-5.759-6.302-13.771-6.302-13.771a11.157 11.157 0 0 1-1.12-4.88c0-4.108 2.218-7.705 5.541-9.703 1.477-.713 1.5-1.648.297-1.44-.315.052-.636.113-.965.188a1.572 1.572 0 0 1-.214.052c-.67.163-1.363.378-2.072.667-4.036 1.642-7.457 4.47-9.878 7.989a21.788 21.788 0 0 0-2.823 5.765A21.655 21.655 0 0 0 0 21.245C0 31.612 5.455 36.58 6.867 37.693c.14.11.35.022.364-.154-.539-2.545-.526-7.908-.526-7.908s.671 3.021 1.537 5.557c1.707 4.102 5.23 5.93 6.457 6.458a.287.287 0 0 0 .403-.276c-1.381-2.36-2.59-9.367-2.59-9.367s2 5.186 3.61 7.393c.262.29.531.56.806.808l.004.004c.24.215.61.201.839-.025 1.309-1.292 2.446-2.774 3.59-4.534" fill="#79158F"/><path d="M40.964 8.912c-2.403-3.516-5.8-6.34-9.805-7.981A14.62 14.62 0 0 0 29.1.264a1.563 1.563 0 0 1-.211-.051 15.504 15.504 0 0 0-.958-.187c-1.211-.187-1.099.68.295 1.437 3.298 1.997 5.5 5.59 5.5 9.693a11.2 11.2 0 0 1-1.112 4.876s-3.099 8.005-6.255 13.758c-3.257 5.935-5.372 9.673-8.79 12.505a.302.302 0 0 0 .15.532c2.435.352 8.182.676 11.872-4.509 1.921-2.783 2.466-5.524 2.466-5.524s-1.041 6.03-2.281 8.532a.284.284 0 0 0 .398.277c1.055-.458 3.84-1.898 5.663-4.96-.01-.096-.013-.16-.013-.16 1.255-2.41 2.452-7.83 2.452-7.83s-.014 6.184-.688 8.846a.223.223 0 0 0 .362.154c1.4-1.112 6.816-6.076 6.816-16.433 0-2.287-.351-4.482-1.001-6.548a21.797 21.797 0 0 0-2.802-5.76" fill="#79158F"/><path d="M15.22 11.082c0 3.918 3.208 7.093 7.163 7.093 3.957 0 7.163-3.175 7.163-7.093 0-3.916-3.206-7.092-7.163-7.092-3.955 0-7.162 3.176-7.162 7.092M101.16 7.536L93.929 29 87.062 7.536h-2.465L77.65 29 70.5 7.536h-3.797l9.568 27.485h2.571l6.887-20.654L92.58 35.02h2.57l9.603-27.485z" fill="#79158F"/></g></svg>