<svg width="31" height="30" xmlns="http://www.w3.org/2000/svg"><path d="M10.602 7.752c0 2.7 2.193 4.89 4.898 4.89a4.894 4.894 0 0 0 4.897-4.89c0-2.7-2.192-4.89-4.897-4.89a4.894 4.894 0 0 0-4.898 4.89m19.707 2.486a15.276 15.276 0 0 0-1.935-4.018c-1.66-2.453-4.005-4.423-6.771-5.568a9.991 9.991 0 0 0-1.567-.5 10.476 10.476 0 0 0-.662-.131c-.836-.13-.759.475.204 1.002a7.916 7.916 0 0 1 3.03 10.164s-2.14 5.584-4.32 9.598c-2.249 4.14-3.709 6.748-6.07 8.723a.211.211 0 0 0 .104.371c1.681.246 5.65.472 8.198-3.145 1.327-1.941 1.704-3.854 1.704-3.854s-.72 4.207-1.576 5.952c-.01.147.14.252.275.193.729-.32 2.652-1.324 3.911-3.46a2.253 2.253 0 0 1-.01-.111c.868-1.681 1.694-5.463 1.694-5.463s-.01 4.314-.475 6.171c.01.123.153.185.25.108C27.26 25.494 31 22.03 31 14.806c0-1.595-.242-3.127-.691-4.568M12.182 28.005a.416.416 0 0 1-.575.017l-.003-.002a7.675 7.675 0 0 1-.552-.564c-1.104-1.537-2.476-5.152-2.476-5.152s.83 4.883 1.776 6.528a.197.197 0 0 1-.276.192c-.84-.368-3.256-1.642-4.426-4.5-.594-1.768-1.054-3.873-1.054-3.873s-.008 3.738.36 5.511a.154.154 0 0 1-.249.108C3.74 25.494 0 22.03 0 14.806A15.276 15.276 0 0 1 2.626 6.22C4.286 3.768 6.631 1.798 9.397.653a9.985 9.985 0 0 1 1.568-.5c.225-.053.445-.096.661-.131.824-.146.808.506-.204 1.002a7.916 7.916 0 0 0-3.03 10.164s2.14 5.584 4.32 9.598c.707 1.302 1.336 2.45 1.94 3.477a.558.558 0 0 1-.009.583c-.784 1.227-1.564 2.26-2.461 3.16" fill="#79158F" fill-rule="evenodd"/></svg>